<svg width="200" height="45" viewBox="0 0 200 45" fill="none" xmlns="http://www.w3.org/2000/svg">
<g filter="url(#filter0_d_28211_9)">
<path d="M31.276 32.3H43.476V36H26.726V1.15H31.276V32.3ZM60.258 36.45C57.6913 36.45 55.358 35.8667 53.258 34.7C51.1913 33.5333 49.558 31.8833 48.358 29.75C47.1913 27.5833 46.608 25.0833 46.608 22.25C46.608 19.45 47.208 16.9833 48.408 14.85C49.6413 12.6833 51.308 11.0333 53.408 9.9C55.508 8.73333 57.858 8.15 60.458 8.15C63.058 8.15 65.408 8.73333 67.508 9.9C69.608 11.0333 71.258 12.6667 72.458 14.8C73.6913 16.9333 74.308 19.4167 74.308 22.25C74.308 25.0833 73.6747 27.5833 72.408 29.75C71.1747 31.8833 69.4913 33.5333 67.358 34.7C65.2247 35.8667 62.858 36.45 60.258 36.45ZM60.258 32.45C61.8913 32.45 63.4247 32.0667 64.858 31.3C66.2913 30.5333 67.4413 29.3833 68.308 27.85C69.208 26.3167 69.658 24.45 69.658 22.25C69.658 20.05 69.2247 18.1833 68.358 16.65C67.4913 15.1167 66.358 13.9833 64.958 13.25C63.558 12.4833 62.0413 12.1 60.408 12.1C58.7413 12.1 57.208 12.4833 55.808 13.25C54.4413 13.9833 53.3413 15.1167 52.508 16.65C51.6747 18.1833 51.258 20.05 51.258 22.25C51.258 24.4833 51.658 26.3667 52.458 27.9C53.2913 29.4333 54.3913 30.5833 55.758 31.35C57.1247 32.0833 58.6247 32.45 60.258 32.45ZM90.4904 31.8L98.9904 8.6H103.84L93.0904 36H87.7904L77.0404 8.6H81.9404L90.4904 31.8ZM133.318 21.25C133.318 22.1167 133.268 23.0333 133.168 24H111.268C111.434 26.7 112.351 28.8167 114.018 30.35C115.718 31.85 117.768 32.6 120.168 32.6C122.134 32.6 123.768 32.15 125.068 31.25C126.401 30.3167 127.334 29.0833 127.868 27.55H132.768C132.034 30.1833 130.568 32.3333 128.368 34C126.168 35.6333 123.434 36.45 120.168 36.45C117.568 36.45 115.234 35.8667 113.168 34.7C111.134 33.5333 109.534 31.8833 108.368 29.75C107.201 27.5833 106.618 25.0833 106.618 22.25C106.618 19.4167 107.184 16.9333 108.318 14.8C109.451 12.6667 111.034 11.0333 113.068 9.9C115.134 8.73333 117.501 8.15 120.168 8.15C122.768 8.15 125.068 8.71667 127.068 9.85C129.068 10.9833 130.601 12.55 131.668 14.55C132.768 16.5167 133.318 18.75 133.318 21.25ZM128.618 20.3C128.618 18.5667 128.234 17.0833 127.468 15.85C126.701 14.5833 125.651 13.6333 124.318 13C123.018 12.3333 121.568 12 119.968 12C117.668 12 115.701 12.7333 114.068 14.2C112.468 15.6667 111.551 17.7 111.318 20.3H128.618ZM143.874 1.15V36H139.324V1.15H143.874ZM162.678 36.35C160.378 36.35 158.312 35.95 156.478 35.15C154.678 34.3167 153.262 33.1833 152.228 31.75C151.195 30.2833 150.662 28.6 150.628 26.7H155.478C155.645 28.3333 156.312 29.7167 157.478 30.85C158.678 31.95 160.412 32.5 162.678 32.5C164.845 32.5 166.545 31.9667 167.778 30.9C169.045 29.8 169.678 28.4 169.678 26.7C169.678 25.3667 169.312 24.2833 168.578 23.45C167.845 22.6167 166.928 21.9833 165.828 21.55C164.728 21.1167 163.245 20.65 161.378 20.15C159.078 19.55 157.228 18.95 155.828 18.35C154.462 17.75 153.278 16.8167 152.278 15.55C151.312 14.25 150.828 12.5167 150.828 10.35C150.828 8.45 151.312 6.76666 152.278 5.3C153.245 3.83333 154.595 2.7 156.328 1.9C158.095 1.1 160.112 0.699998 162.378 0.699998C165.645 0.699998 168.312 1.51667 170.378 3.15C172.478 4.78333 173.662 6.95 173.928 9.65H168.928C168.762 8.31667 168.062 7.15 166.828 6.15C165.595 5.11667 163.962 4.6 161.928 4.6C160.028 4.6 158.478 5.1 157.278 6.1C156.078 7.06667 155.478 8.43333 155.478 10.2C155.478 11.4667 155.828 12.5 156.528 13.3C157.262 14.1 158.145 14.7167 159.178 15.15C160.245 15.55 161.728 16.0167 163.628 16.55C165.928 17.1833 167.778 17.8167 169.178 18.45C170.578 19.05 171.778 20 172.778 21.3C173.778 22.5667 174.278 24.3 174.278 26.5C174.278 28.2 173.828 29.8 172.928 31.3C172.028 32.8 170.695 34.0167 168.928 34.95C167.162 35.8833 165.078 36.35 162.678 36.35Z" fill="white"/>
</g>
<path d="M90.2271 38.35C87.9271 38.35 85.8605 37.95 84.0271 37.15C82.2271 36.3167 80.8105 35.1833 79.7771 33.75C78.7438 32.2833 78.2105 30.6 78.1771 28.7H83.0271C83.1938 30.3333 83.8605 31.7167 85.0271 32.85C86.2271 33.95 87.9605 34.5 90.2271 34.5C92.3938 34.5 94.0938 33.9667 95.3271 32.9C96.5938 31.8 97.2271 30.4 97.2271 28.7C97.2271 27.3667 96.8605 26.2833 96.1271 25.45C95.3938 24.6167 94.4771 23.9833 93.3771 23.55C92.2771 23.1167 90.7938 22.65 88.9271 22.15C86.6271 21.55 84.7771 20.95 83.3771 20.35C82.0105 19.75 80.8271 18.8167 79.8271 17.55C78.8605 16.25 78.3771 14.5167 78.3771 12.35C78.3771 10.45 78.8605 8.76666 79.8271 7.3C80.7938 5.83333 82.1438 4.7 83.8771 3.9C85.6438 3.1 87.6605 2.7 89.9271 2.7C93.1938 2.7 95.8605 3.51667 97.9271 5.15C100.027 6.78333 101.21 8.95 101.477 11.65H96.4771C96.3105 10.3167 95.6105 9.15 94.3771 8.15C93.1438 7.11667 91.5105 6.6 89.4771 6.6C87.5771 6.6 86.0271 7.1 84.8271 8.1C83.6271 9.06667 83.0271 10.4333 83.0271 12.2C83.0271 13.4667 83.3771 14.5 84.0771 15.3C84.8105 16.1 85.6938 16.7167 86.7271 17.15C87.7938 17.55 89.2771 18.0167 91.1771 18.55C93.4771 19.1833 95.3271 19.8167 96.7272 20.45C98.1271 21.05 99.3271 22 100.327 23.3C101.327 24.5667 101.827 26.3 101.827 28.5C101.827 30.2 101.377 31.8 100.477 33.3C99.5771 34.8 98.2438 36.0167 96.4771 36.95C94.7105 37.8833 92.6271 38.35 90.2271 38.35Z" fill="#FF0000" fill-opacity="0.7"/>
<path d="M178.755 1.45L165.605 36.3H160.355L147.205 1.45H152.055L163.005 31.5L173.955 1.45H178.755Z" fill="#FF0000" fill-opacity="0.7"/>
<defs>
<filter id="filter0_d_28211_9" x="22.726" y="0.699997" width="155.552" height="43.75" filterUnits="userSpaceOnUse" color-interpolation-filters="sRGB">
<feFlood flood-opacity="0" result="BackgroundImageFix"/>
<feColorMatrix in="SourceAlpha" type="matrix" values="0 0 0 0 0 0 0 0 0 0 0 0 0 0 0 0 0 0 127 0" result="hardAlpha"/>
<feOffset dy="4"/>
<feGaussianBlur stdDeviation="2"/>
<feComposite in2="hardAlpha" operator="out"/>
<feColorMatrix type="matrix" values="0 0 0 0 0 0 0 0 0 0 0 0 0 0 0 0 0 0 0.25 0"/>
<feBlend mode="normal" in2="BackgroundImageFix" result="effect1_dropShadow_28211_9"/>
<feBlend mode="normal" in="SourceGraphic" in2="effect1_dropShadow_28211_9" result="shape"/>
</filter>
</defs>
</svg>
